<?xml version="1.0" standalone="no"?>
<!DOCTYPE svg PUBLIC "-//W3C//DTD SVG 20010904//EN"
 "http://www.w3.org/TR/2001/REC-SVG-20010904/DTD/svg10.dtd">
<svg version="1.0" xmlns="http://www.w3.org/2000/svg"
 width="1674.000000pt" height="1388.000000pt" viewBox="0 0 1674.000000 1388.000000"
 preserveAspectRatio="xMidYMid meet">

<g transform="translate(0.000000,1388.000000) scale(0.100000,-0.100000)"
fill="#000000" stroke="none">
<path d="M12698 13850 c-145 -23 -244 -75 -353 -186 -111 -112 -146 -216 -164
-488 -25 -365 -7 -510 86 -702 l58 -119 0 -121 0 -122 -71 -78 c-101 -112
-232 -216 -347 -274 l-98 -50 -117 0 c-201 0 -371 -40 -557 -129 -204 -99
-317 -232 -388 -458 -45 -143 -51 -194 -49 -433 l2 -225 -56 -150 c-30 -82
-77 -206 -104 -275 -86 -223 -135 -414 -147 -570 -5 -76 -10 -89 -38 -125 -47
-59 -246 -398 -319 -543 -83 -166 -269 -639 -299 -762 -9 -36 -37 -150 -63
-255 -43 -178 -100 -339 -169 -475 -13 -25 -61 -82 -107 -126 -45 -44 -137
-140 -202 -213 -65 -73 -143 -150 -171 -171 -68 -50 -182 -164 -190 -189 -9
-30 11 -58 45 -66 26 -6 42 1 98 37 37 23 85 59 107 79 53 48 125 92 125 77 0
-18 -62 -127 -151 -264 -45 -69 -88 -144 -96 -166 -13 -38 -13 -44 5 -67 26
-36 76 -40 109 -9 14 13 64 77 110 143 127 178 127 180 7 -80 -55 -120 -68
-159 -69 -200 l0 -50 43 -15 c31 -11 47 -12 60 -4 9 6 53 80 97 165 103 197
168 305 159 264 -15 -73 -37 -156 -59 -226 -30 -95 -40 -185 -26 -221 9 -25
16 -28 54 -28 74 0 107 54 156 261 36 151 71 250 122 349 57 109 61 113 93 99
36 -17 49 -40 81 -144 46 -151 104 -245 151 -245 31 0 80 25 87 44 3 8 -15 90
-39 183 -82 309 -125 487 -133 553 l-8 65 107 235 c75 165 135 280 202 385 52
83 123 195 158 250 35 55 87 127 115 160 132 153 196 258 294 487 67 155 73
175 88 295 l17 128 49 56 c92 106 177 234 256 389 65 127 87 182 120 304 23
82 41 156 41 165 0 9 3 11 9 6 11 -13 46 -265 71 -519 20 -199 33 -259 107
-491 32 -103 39 -277 24 -605 -16 -348 -38 -456 -201 -955 -84 -257 -122 -392
-145 -520 -8 -44 -26 -134 -40 -200 -22 -105 -25 -148 -27 -360 -5 -572 -1
-744 21 -915 60 -475 48 -801 -44 -1170 -52 -209 -65 -296 -65 -438 0 -124
-18 -208 -60 -292 -58 -115 -171 -426 -215 -595 -18 -69 -45 -356 -45 -490 0
-49 -7 -145 -15 -213 -8 -68 -19 -201 -25 -295 -5 -95 -17 -282 -25 -417 -19
-321 -35 -765 -37 -1070 -2 -237 -2 -247 20 -295 54 -117 100 -149 212 -149
82 0 216 32 268 64 37 23 87 123 107 213 7 34 35 112 61 172 l49 110 -2 103
c-2 123 -8 133 -133 240 -92 78 -89 58 -40 256 47 191 340 816 431 920 64 73
108 180 135 326 11 56 18 187 23 390 7 280 10 320 40 490 33 184 33 186 87
276 150 250 292 682 345 1051 27 190 77 352 217 698 63 154 121 354 147 507
20 111 43 462 38 553 -4 61 0 85 32 185 21 63 40 119 43 124 6 10 54 -108 77
-189 9 -33 18 -150 24 -340 6 -162 17 -325 26 -371 8 -44 58 -204 111 -355
168 -476 232 -680 254 -799 75 -410 151 -648 307 -963 l115 -230 26 -141 c24
-134 25 -157 24 -449 -3 -443 9 -494 203 -847 192 -351 219 -411 343 -745 53
-144 82 -241 82 -280 0 -7 -30 -36 -67 -63 -119 -88 -153 -135 -153 -207 0
-77 103 -436 151 -526 44 -83 73 -105 169 -134 131 -39 231 -29 317 34 75 55
74 39 70 701 -3 436 -8 626 -20 745 -9 88 -18 212 -22 275 -3 63 -10 153 -15
200 -6 47 -17 173 -25 280 -8 107 -24 274 -34 370 -11 96 -24 225 -30 285 -12
132 -45 243 -113 379 -59 117 -130 290 -152 366 -10 37 -17 124 -21 265 -4
129 -12 227 -20 255 -31 104 -86 321 -95 371 -4 30 -9 176 -9 324 -1 222 2
300 20 435 19 150 21 216 22 730 l2 565 -28 135 c-50 238 -123 527 -207 815
-45 154 -92 327 -105 385 -31 137 -53 363 -61 630 -7 253 0 311 76 575 60 212
94 425 126 780 l7 80 29 -105 c54 -201 80 -276 132 -385 55 -115 183 -313 259
-402 40 -46 47 -61 57 -125 17 -105 58 -283 81 -352 45 -133 168 -338 274
-456 69 -77 113 -142 185 -270 29 -52 88 -149 130 -215 147 -229 196 -316 244
-434 36 -88 36 -218 2 -369 -14 -59 -46 -206 -71 -327 l-46 -220 22 -17 c62
-51 109 1 194 213 48 118 63 139 101 139 18 0 32 -20 78 -110 31 -60 63 -136
70 -167 36 -147 89 -340 98 -358 33 -64 81 -81 128 -45 23 17 25 26 25 92 0
42 -7 96 -18 128 -20 64 -38 163 -30 170 3 3 7 1 10 -5 5 -15 85 -146 151
-250 57 -88 59 -90 101 -93 53 -4 68 8 76 63 6 39 2 51 -47 136 -47 81 -62
114 -96 199 -7 17 44 -40 118 -134 78 -97 132 -120 164 -71 22 33 20 61 -9
122 -35 77 -144 261 -180 308 -74 94 -52 81 96 -54 100 -91 112 -97 179 -92
14 1 33 11 43 23 34 40 23 62 -75 147 -92 78 -183 173 -289 301 -29 36 -103
117 -164 180 -141 146 -180 221 -255 490 -100 360 -131 462 -209 678 -126 347
-181 464 -383 804 -38 65 -87 141 -109 170 l-39 53 6 76 c14 168 -77 460 -259
827 l-62 127 8 165 c15 277 -17 530 -84 661 -94 188 -196 282 -385 357 -222
89 -376 122 -560 122 -107 0 -117 2 -186 34 -121 55 -317 212 -380 304 -31 45
-32 47 -31 166 1 129 1 129 73 294 17 41 42 122 56 180 23 99 24 121 20 297
-10 375 -46 519 -172 672 -66 80 -271 172 -399 178 -38 2 -96 0 -127 -5z m248
-81 c103 -32 181 -75 244 -135 110 -105 145 -227 159 -553 5 -113 5 -217 0
-233 -11 -41 -113 -230 -165 -309 -102 -154 -177 -189 -404 -189 -160 0 -179
6 -302 90 -87 59 -110 88 -194 256 l-58 114 0 242 c-1 200 2 258 18 328 43
200 144 310 349 381 107 37 248 40 353 8z m384 -1078 c0 -25 -46 -154 -76
-211 -37 -72 -54 -143 -54 -226 0 -29 -4 -55 -9 -58 -5 -3 -32 30 -61 75 l-51
80 38 45 c64 76 129 171 164 239 31 59 49 80 49 56z m-1024 -116 c26 -46 76
-116 112 -155 50 -55 63 -75 58 -93 -10 -36 -85 -149 -96 -142 -6 3 -10 36
-10 73 0 87 -20 164 -64 243 -52 94 -72 159 -50 159 1 0 24 -38 50 -85z m773
-298 c54 -99 120 -199 161 -242 20 -22 64 -69 96 -104 32 -35 94 -90 137 -122
61 -46 73 -59 55 -59 -30 0 -458 116 -613 167 l-120 39 -3 167 c-1 92 -1 167
2 167 19 0 159 32 191 43 22 8 45 12 50 10 6 -2 26 -31 44 -66z m-487 28 c32
-9 81 -17 109 -18 l49 -2 0 -136 c0 -75 3 -150 6 -166 l6 -29 -149 -47 c-269
-84 -593 -170 -625 -165 -17 2 -11 9 32 37 83 54 239 187 305 260 33 36 89
115 125 173 36 59 69 107 74 108 4 0 35 -7 68 -15z m319 -420 c105 -36 444
-131 642 -181 59 -14 107 -31 107 -37 0 -5 -17 -30 -37 -55 -88 -107 -163
-236 -194 -332 -49 -155 -88 -369 -100 -545 -18 -281 -23 -307 -68 -401 -22
-46 -78 -144 -124 -217 -100 -158 -213 -364 -256 -467 -46 -109 -62 -138 -79
-145 -27 -10 -73 47 -125 154 -52 110 -128 252 -207 386 -228 390 -235 409
-244 685 -13 395 -85 652 -227 816 -46 53 -93 124 -86 130 2 2 115 33 250 69
247 65 425 117 527 154 77 27 102 26 221 -14z m-1017 -271 l37 -66 -25 -32
c-13 -17 -68 -76 -122 -131 -92 -94 -108 -105 -232 -169 -73 -37 -146 -79
-163 -93 -44 -38 -70 -95 -88 -201 l-16 -95 -125 -49 c-208 -81 -268 -114
-342 -188 -37 -37 -70 -65 -73 -62 -12 13 -4 363 10 448 50 281 166 454 370
550 168 79 284 112 450 128 83 9 177 17 210 19 33 2 63 4 67 5 3 1 23 -28 42
-64z m2223 37 c145 -29 347 -118 446 -196 66 -52 135 -141 182 -235 42 -84 61
-147 75 -245 12 -82 17 -452 6 -463 -4 -3 -14 5 -23 19 -30 42 -96 111 -145
150 -36 28 -85 50 -200 88 -84 28 -159 55 -167 60 -9 6 -15 33 -18 72 -5 79
-16 122 -46 174 -23 41 -37 51 -272 185 -79 45 -116 75 -212 173 -104 106
-114 120 -101 135 8 9 26 37 40 62 l26 45 178 -7 c99 -3 203 -11 231 -17z
m-2053 -281 c44 -85 61 -141 86 -278 21 -118 55 -546 45 -563 -4 -5 -19 -9
-34 -9 -43 0 -128 -32 -242 -93 -116 -62 -202 -88 -291 -88 -51 -1 -68 4 -117
34 -80 50 -115 99 -136 194 -24 108 -34 193 -35 292 0 69 5 94 27 145 14 33
36 72 47 85 12 12 75 50 141 83 155 78 207 118 312 246 l87 105 38 -44 c21
-24 53 -73 72 -109z m1934 -183 c73 -38 147 -81 164 -95 67 -57 87 -152 64
-317 -21 -158 -42 -242 -79 -310 -27 -51 -41 -65 -92 -92 -109 -59 -221 -42
-419 61 -77 40 -149 70 -198 81 -76 18 -76 18 -73 49 3 17 7 103 10 191 6 171
23 279 75 465 35 127 51 162 111 243 l43 58 130 -133 c128 -130 134 -135 264
-201z m-2695 -449 c10 -80 37 -220 46 -237 15 -29 61 -249 61 -293 0 -76 -95
-421 -159 -583 -56 -138 -170 -324 -271 -437 l-41 -48 -89 3 c-55 1 -94 7
-102 15 -19 19 5 158 53 309 63 200 65 293 7 358 -37 43 -89 49 -112 13 -41
-63 -68 -164 -77 -293 -5 -71 -14 -157 -20 -190 -14 -75 -57 -215 -68 -215
-29 0 -72 105 -92 224 -12 71 -11 90 8 206 30 174 112 422 250 750 63 151 137
255 221 309 26 16 106 53 177 81 72 28 144 57 160 64 17 8 33 12 36 10 4 -2 9
-23 12 -46z m3034 26 c201 -76 254 -99 310 -137 84 -56 128 -118 222 -310 189
-387 296 -764 261 -919 -19 -86 -61 -222 -73 -236 -19 -23 -39 -8 -62 50 -18
45 -26 91 -34 215 -14 200 -24 259 -58 346 -31 79 -52 93 -113 77 -87 -23 -96
-134 -31 -350 48 -158 63 -237 59 -305 l-3 -50 -81 -3 -82 -3 -54 63 c-74 85
-211 291 -259 391 -22 45 -50 118 -64 162 -62 210 -108 395 -109 440 -1 63 28
235 50 300 19 57 44 203 44 258 0 20 2 37 5 37 3 0 35 -12 72 -26z m-2103
-379 c19 -53 59 -133 96 -190 35 -55 87 -138 115 -185 79 -130 277 -523 266
-529 -5 -3 -53 -31 -106 -61 -210 -120 -262 -176 -321 -346 -33 -95 -34 -105
-34 -249 0 -234 -36 -349 -162 -520 -60 -81 -66 -77 -68 50 -1 114 -23 223
-61 307 -19 41 -80 135 -139 213 -108 143 -211 303 -249 387 -15 35 -26 97
-41 255 -11 114 -34 293 -50 397 -17 104 -30 219 -30 255 0 36 -7 95 -14 131
-8 36 -12 67 -10 70 3 2 17 -4 32 -14 158 -103 338 -84 546 56 80 54 114 68
160 65 l38 -2 32 -90z m1370 16 c173 -88 268 -117 349 -106 47 7 144 51 180
83 15 14 17 13 17 -4 0 -10 -5 -37 -10 -59 -5 -22 -14 -101 -20 -175 -6 -74
-17 -175 -25 -225 -8 -49 -26 -193 -40 -319 -29 -259 -37 -301 -74 -371 -47
-90 -142 -239 -186 -290 -78 -93 -178 -247 -202 -312 -27 -75 -53 -224 -53
-305 0 -31 -4 -59 -8 -62 -5 -3 -32 30 -61 74 -111 169 -151 304 -156 525 -4
209 -45 323 -158 440 -49 50 -87 77 -179 125 -65 34 -120 65 -123 69 -2 5 7
30 20 57 14 27 44 92 68 144 40 87 176 329 275 492 58 94 97 173 118 241 l18
57 47 0 c39 0 74 -13 203 -79z m-2825 -607 c50 -64 48 -130 -10 -302 -33 -98
-69 -265 -69 -321 0 -59 9 -64 107 -69 l88 -4 -7 -107 c-9 -122 -19 -155 -99
-344 -75 -176 -106 -229 -232 -390 -126 -161 -381 -557 -469 -727 -35 -69 -82
-171 -104 -227 -28 -74 -44 -103 -59 -107 -62 -17 -269 9 -334 42 -59 29 -59
36 2 168 64 139 113 284 161 479 121 483 276 857 509 1223 52 81 102 162 111
180 20 39 34 41 42 5 25 -113 35 -138 65 -169 49 -51 71 -46 102 24 38 85 56
171 67 338 11 155 20 206 43 264 8 19 17 43 20 53 9 25 43 21 66 -9z m4091
-48 c29 -59 32 -76 45 -247 8 -101 19 -207 25 -235 11 -50 64 -174 75 -174 3
0 19 7 35 15 34 18 58 60 91 162 20 64 24 70 36 55 37 -47 242 -400 284 -487
90 -191 241 -560 275 -675 20 -63 57 -198 84 -300 55 -210 110 -372 164 -477
20 -40 36 -74 36 -76 0 -2 -19 -12 -42 -21 -24 -10 -57 -24 -75 -32 -54 -23
-145 -42 -213 -46 l-64 -3 -51 125 c-62 152 -79 186 -164 320 -37 58 -109 176
-160 262 -85 142 -125 200 -313 447 -103 134 -211 384 -248 568 -30 156 -31
156 55 166 91 11 113 21 121 53 10 40 -23 211 -67 354 -48 153 -57 221 -36
273 13 31 21 37 46 37 27 0 33 -7 61 -64z m-1975 -331 c220 -118 250 -143 309
-255 45 -84 62 -165 71 -327 7 -145 42 -309 83 -391 16 -33 57 -100 91 -150
34 -49 61 -94 61 -100 0 -6 -19 -13 -42 -17 -71 -12 -218 -64 -298 -106 -141
-74 -270 -199 -356 -347 l-37 -63 -48 87 c-56 100 -89 140 -167 207 -122 103
-323 201 -459 223 -25 4 -43 12 -43 19 0 7 20 40 45 72 85 108 115 158 146
243 31 82 32 92 39 295 8 234 18 281 85 382 48 72 106 117 257 201 152 82 159
83 263 27z m1045 -366 c0 -5 -8 -42 -17 -82 -15 -60 -18 -115 -17 -322 1 -137
7 -310 13 -384 6 -74 9 -136 7 -138 -2 -2 -59 10 -127 26 -68 16 -148 33 -177
37 l-53 7 6 116 c8 130 27 238 56 317 20 52 130 214 223 328 26 32 53 70 58
82 11 25 28 32 28 13z m-2178 -171 c134 -178 172 -240 192 -323 16 -63 39
-342 30 -356 -3 -5 -15 -9 -28 -9 -12 0 -84 -15 -159 -34 -76 -18 -139 -31
-141 -27 -2 3 0 31 4 61 5 30 11 163 14 295 7 240 -6 438 -33 506 -8 22 -6 39
4 39 1 0 54 -69 117 -152z m312 -737 c5 -1 -76 -88 -181 -193 -218 -221 -232
-244 -281 -443 -35 -141 -76 -230 -176 -372 -104 -150 -105 -147 -30 102 25
83 76 247 114 365 68 209 101 336 115 432 6 46 8 48 48 58 23 6 49 14 57 17
44 16 222 42 270 38 30 -2 59 -4 64 -4z m1729 -30 c71 -16 130 -31 132 -33 2
-2 13 -51 25 -108 11 -58 29 -132 40 -165 11 -33 49 -169 85 -303 35 -134 67
-247 70 -252 11 -18 63 -229 58 -234 -11 -11 -151 199 -208 313 -14 29 -42
115 -61 190 -20 75 -47 158 -62 184 -35 65 -123 166 -271 311 -66 65 -118 123
-114 129 10 16 166 0 306 -32z m-223 -122 c227 -215 277 -290 334 -507 34
-126 62 -194 119 -294 14 -23 35 -71 46 -105 36 -108 25 -334 -22 -472 -63
-180 -263 -296 -572 -331 -254 -30 -398 -22 -505 26 l-56 25 -11 92 c-9 69
-23 121 -59 212 l-49 120 -3 407 -3 407 27 68 c43 110 84 174 159 248 92 91
223 171 344 212 53 18 98 32 100 32 2 1 70 -62 151 -140z m-1364 110 c145 -45
303 -147 397 -257 32 -37 78 -107 102 -156 l45 -89 -2 -431 -3 -431 -48 -133
c-37 -106 -47 -147 -47 -197 0 -61 -1 -64 -32 -83 -83 -50 -237 -76 -358 -61
-41 5 -129 14 -195 19 -153 13 -220 31 -314 81 -111 59 -167 103 -205 162 -59
88 -79 165 -84 309 -5 170 12 257 83 409 30 63 66 158 80 210 47 167 64 213
102 269 47 71 371 400 394 400 9 0 48 -10 85 -21z m3935 -936 c57 -60 148
-160 201 -223 86 -101 255 -270 310 -308 25 -18 7 -42 -32 -42 -21 0 -46 18
-102 71 -79 77 -224 189 -245 189 -18 0 -16 -45 3 -81 8 -17 61 -103 118 -192
112 -177 159 -287 123 -287 -25 0 -94 79 -220 253 -71 97 -135 177 -143 177
-18 0 -18 6 10 -77 24 -71 48 -124 158 -354 52 -108 59 -129 49 -148 -7 -11
-15 -21 -19 -21 -13 0 -52 31 -52 40 0 5 -13 29 -29 52 -33 50 -153 255 -202
345 -34 64 -56 83 -65 58 -6 -14 22 -168 57 -315 29 -122 36 -222 15 -239 -30
-25 -67 25 -84 114 -36 183 -77 315 -129 419 -75 149 -88 166 -127 166 -59 0
-89 -36 -135 -162 -43 -118 -94 -218 -112 -218 -29 0 -24 42 53 385 44 195 66
309 71 370 2 29 4 30 67 37 68 7 108 17 255 67 50 16 93 30 96 31 3 0 52 -48
110 -107z m-6567 32 c51 -22 195 -45 279 -45 l67 0 0 -55 c0 -30 9 -87 20
-127 21 -80 81 -358 110 -511 16 -88 16 -99 2 -104 -27 -11 -75 74 -123 219
-36 107 -60 144 -105 158 -41 14 -62 4 -96 -47 -36 -53 -113 -225 -133 -298
-41 -149 -108 -338 -130 -363 -1 -1 -10 0 -19 4 -24 9 -21 97 8 182 25 72 73
281 78 337 2 31 -7 55 -22 55 -4 0 -20 -21 -35 -47 -16 -27 -47 -77 -70 -113
-24 -36 -62 -103 -85 -150 -73 -147 -122 -220 -147 -220 -16 0 -23 6 -23 18 0
26 33 118 64 179 31 63 119 264 152 352 18 48 21 67 13 77 -6 8 -15 11 -21 8
-5 -3 -59 -81 -120 -172 -157 -235 -194 -282 -224 -282 -20 0 -24 5 -24 28 0
26 16 54 108 188 23 34 60 95 81 135 21 41 50 94 65 119 26 45 35 110 16 110
-14 0 -182 -113 -250 -168 -69 -56 -116 -80 -131 -65 -7 7 18 34 83 90 126
108 144 127 284 288 67 77 152 168 189 203 61 57 69 62 84 48 9 -8 34 -22 55
-31z m1853 -157 c-15 -61 -18 -155 -8 -268 9 -105 16 -135 41 -185 48 -99 110
-167 210 -234 96 -64 167 -91 298 -111 39 -7 72 -14 72 -17 0 -13 -58 -196
-125 -398 -99 -297 -132 -460 -155 -767 -21 -285 -122 -500 -325 -700 -74 -73
-222 -184 -232 -175 -3 4 4 46 16 94 37 144 71 322 81 416 12 119 -4 509 -29
677 -23 155 -26 287 -23 845 3 363 5 411 25 520 21 111 27 129 82 223 58 98
83 126 72 80z m2765 -98 c55 -93 63 -115 87 -260 18 -107 19 -153 15 -640 -4
-421 -9 -559 -24 -695 -23 -215 -33 -547 -20 -690 7 -71 26 -169 55 -276 25
-91 45 -173 45 -182 0 -27 -180 105 -265 195 -85 88 -171 214 -203 298 -47
121 -89 320 -122 586 -29 224 -54 337 -111 509 -48 142 -129 426 -129 451 0 7
32 16 78 23 134 20 307 96 377 165 100 100 145 237 153 459 2 82 8 145 12 140
4 -4 27 -42 52 -83z m-1542 -698 c0 -95 -21 -319 -41 -431 -12 -71 -46 -190
-88 -315 -74 -218 -208 -576 -221 -589 -15 -17 -98 522 -130 843 -13 133 -54
384 -70 425 -6 15 -8 31 -4 34 3 3 65 4 137 3 146 -4 249 12 347 53 30 13 58
24 63 24 4 1 7 -21 7 -47z m394 -3 c78 -18 109 -20 216 -14 69 3 141 7 160 8
l35 2 -3 -45 c-2 -25 -18 -137 -37 -250 -18 -113 -52 -342 -75 -510 -48 -360
-79 -535 -92 -522 -4 4 -34 78 -64 163 -268 743 -261 714 -271 995 -6 183 -3
210 24 200 9 -4 57 -16 107 -27z m-940 -304 c19 -115 37 -255 41 -310 16 -248
70 -599 115 -755 5 -19 10 -54 10 -77 0 -110 -103 -565 -170 -754 -48 -134
-211 -482 -221 -472 -4 5 -29 57 -54 118 -63 147 -108 236 -163 320 l-46 70
-4 129 c-6 195 10 299 63 405 85 169 111 286 150 676 17 175 48 307 105 460
23 60 59 173 81 250 46 161 50 174 55 160 2 -5 19 -104 38 -220z m1498 -150
c87 -312 107 -400 123 -532 46 -381 61 -450 141 -621 54 -118 65 -176 71 -383
5 -178 5 -187 -15 -207 -42 -42 -161 -269 -214 -409 -10 -29 -24 -55 -29 -58
-5 -4 -51 79 -103 184 -125 253 -181 427 -261 814 l-37 179 31 196 c18 109 50
298 71 422 47 272 87 545 95 660 4 47 9 92 12 100 6 19 49 -110 115 -345z
m538 -1513 c0 -2 -18 -33 -40 -70 -23 -37 -55 -111 -72 -164 -17 -54 -34 -95
-39 -92 -5 3 -9 87 -10 187 0 100 -4 209 -8 242 -5 33 -6 63 -4 68 4 6 173
-161 173 -171z m-2575 -48 c5 -182 -1 -279 -19 -279 -5 0 -20 41 -35 90 -15
50 -44 123 -66 163 l-39 72 74 75 c41 41 75 73 77 72 1 -2 5 -88 8 -193z
m2692 -30 c43 -30 86 -62 96 -69 15 -13 17 -35 17 -186 0 -123 4 -188 16 -231
20 -80 83 -237 139 -348 81 -161 117 -279 135 -440 37 -339 60 -634 51 -643
-6 -6 -35 2 -86 27 -108 51 -185 131 -251 261 -54 106 -70 157 -104 350 -56
318 -125 574 -205 772 l-55 134 39 137 c21 75 51 162 66 192 29 57 55 100 61
100 1 0 38 -25 81 -56z m-2849 -21 c50 -111 78 -183 106 -272 l26 -83 -54
-132 c-78 -187 -144 -431 -196 -719 -73 -405 -162 -564 -375 -672 -38 -19 -72
-32 -77 -29 -13 8 -9 221 6 324 8 52 24 174 36 270 26 210 61 328 160 540 37
80 83 188 101 240 33 93 33 99 37 289 l4 193 30 17 c16 9 57 35 91 58 34 23
65 42 68 42 3 1 20 -29 37 -66z m255 -241 c49 -85 126 -251 162 -348 l22 -60
-29 -155 c-27 -142 -30 -180 -37 -489 -6 -250 -13 -354 -25 -410 -35 -159
-100 -325 -123 -316 -38 15 -160 92 -195 124 -40 37 -130 165 -168 242 -13 25
-27 48 -32 51 -6 4 1 41 16 90 28 94 68 260 121 502 41 189 78 313 145 487 32
82 54 161 65 230 19 114 22 130 29 130 2 0 25 -35 49 -78z m2292 -36 c4 -39
12 -80 19 -91 21 -33 92 -231 135 -375 46 -156 63 -228 91 -400 19 -115 77
-358 101 -421 9 -22 5 -37 -16 -80 -45 -89 -110 -181 -172 -241 -68 -66 -170
-131 -189 -120 -49 27 -106 175 -140 357 -14 76 -15 128 -9 325 8 268 -2 407
-42 572 l-26 106 37 89 c41 99 110 241 157 322 37 64 44 58 54 -43z m-2706
-1414 c16 -32 57 -100 92 -151 66 -99 137 -162 223 -197 25 -11 46 -23 46 -28
0 -4 -15 -34 -34 -65 -52 -84 -336 -658 -357 -720 -18 -52 -69 -310 -89 -449
-5 -38 -6 -81 -1 -97 l8 -30 10 25 c6 14 13 51 17 83 8 65 16 69 72 31 97 -65
131 -134 121 -244 -5 -63 -57 -225 -72 -225 -5 0 -12 14 -15 30 -3 17 -9 29
-15 28 -17 -3 -22 -37 -17 -130 5 -108 -4 -139 -56 -185 -84 -73 -205 -103
-304 -74 -64 18 -102 45 -125 89 -24 46 -29 523 -8 812 8 116 21 377 30 580
16 395 22 518 31 577 5 35 11 41 82 78 127 66 237 170 294 277 13 24 26 43 30
43 4 0 21 -26 37 -58z m3154 -43 c62 -89 115 -131 224 -179 104 -46 93 -17
117 -315 9 -110 24 -270 32 -355 25 -261 31 -455 30 -942 -1 -535 5 -503 -97
-546 -45 -19 -67 -22 -129 -18 -138 8 -219 55 -266 154 -31 65 -33 96 -9 142
18 35 13 80 -9 80 -7 0 -19 -12 -26 -28 l-12 -27 -15 40 c-31 88 -63 223 -63
270 0 49 2 51 69 117 108 103 131 101 131 -8 0 -44 4 -63 14 -67 21 -8 26 2
26 57 -2 205 -56 387 -241 824 -35 84 -191 380 -234 445 l-17 26 71 36 c40 19
90 52 113 73 42 38 129 161 188 266 29 51 35 57 44 42 6 -10 33 -49 59 -87z"/>
<path d="M3783 13780 c-6 -21 -10 -22 -64 -16 -50 6 -59 5 -59 -9 0 -13 -10
-16 -57 -13 -55 3 -58 2 -56 -19 2 -20 -2 -23 -32 -23 -39 0 -55 -21 -38 -50
9 -13 7 -19 -7 -28 -12 -7 -21 -29 -25 -59 -4 -26 -17 -64 -29 -83 -72 -114
-85 -325 -32 -520 31 -113 31 -120 8 -120 -11 0 -27 -9 -36 -19 -15 -16 -17
-30 -11 -88 12 -110 40 -187 89 -242 91 -102 106 -293 42 -531 -20 -74 -48
-158 -62 -187 -37 -76 -120 -141 -292 -227 -145 -73 -222 -94 -318 -88 -108 6
-236 -12 -342 -50 -247 -87 -346 -174 -423 -373 -71 -183 -87 -388 -48 -622
l20 -124 -49 -72 c-93 -136 -154 -279 -186 -437 -20 -100 -46 -300 -46 -355 0
-39 -4 -46 -28 -59 -35 -18 -190 -180 -249 -260 -92 -125 -186 -328 -259 -561
-20 -66 -75 -212 -122 -325 -46 -113 -99 -245 -117 -295 -52 -142 -79 -197
-151 -306 -36 -56 -88 -145 -115 -198 -60 -119 -109 -170 -204 -209 -93 -38
-162 -84 -268 -178 -49 -44 -109 -93 -134 -109 -53 -36 -66 -56 -57 -90 9 -37
29 -43 120 -35 59 4 92 13 126 32 26 14 49 23 52 20 3 -3 6 -25 6 -48 0 -36
-8 -54 -55 -116 -73 -97 -138 -227 -160 -319 -21 -87 -15 -125 20 -141 19 -9
30 -7 61 11 32 19 36 20 29 4 -20 -51 -18 -81 8 -107 46 -45 94 -29 132 43 18
37 30 40 21 8 -8 -34 19 -67 56 -67 40 0 82 45 133 141 21 41 46 85 55 99 9
14 27 55 39 92 21 63 36 87 47 75 3 -2 -11 -53 -30 -113 -47 -149 -48 -157
-30 -182 20 -28 55 -28 81 1 92 102 240 465 273 670 40 249 71 335 165 459 28
37 65 102 83 145 47 116 96 192 212 332 133 161 215 242 370 365 213 169 286
248 359 395 51 101 109 286 133 426 22 129 22 130 69 184 82 92 137 221 203
470 14 51 27 95 29 97 8 9 118 -198 141 -266 56 -169 58 -417 6 -784 -42 -298
-57 -535 -42 -681 l12 -115 -84 -227 c-101 -274 -158 -449 -191 -586 -59 -241
-125 -895 -125 -1233 0 -197 30 -520 59 -639 11 -44 38 -134 59 -200 62 -189
76 -269 75 -435 0 -82 -10 -224 -22 -325 -11 -99 -21 -204 -21 -234 0 -39 -8
-71 -29 -116 -37 -78 -46 -116 -61 -245 -17 -147 -45 -306 -90 -510 -60 -275
-74 -377 -73 -540 1 -80 6 -167 12 -195 76 -372 150 -766 161 -855 5 -47 14
-109 19 -138 24 -129 20 -154 -53 -322 -37 -85 -91 -220 -120 -300 -65 -180
-91 -230 -177 -351 -85 -118 -99 -152 -99 -229 0 -88 22 -107 170 -148 175
-49 247 -62 341 -62 120 0 143 6 199 57 74 67 105 139 129 303 17 116 27 150
67 238 59 130 65 187 34 327 -62 292 -77 441 -61 637 14 185 15 189 104 403
104 250 148 385 210 630 70 277 74 297 92 540 8 110 20 238 25 285 6 47 10
155 9 240 l-1 155 65 165 c74 187 92 268 106 500 8 134 12 153 50 260 54 146
144 458 170 586 11 54 27 167 36 249 8 83 31 238 50 345 49 268 65 419 65 597
0 133 -3 162 -24 228 l-24 75 51 -7 c29 -5 96 -8 150 -8 53 0 97 -1 97 -3 0
-1 -9 -29 -20 -61 -26 -78 -37 -318 -21 -451 14 -112 76 -471 96 -550 7 -30
16 -93 20 -140 13 -156 44 -354 70 -445 15 -49 44 -151 65 -225 22 -74 55
-182 74 -238 29 -86 36 -123 41 -220 11 -214 37 -339 115 -547 48 -129 48
-131 55 -285 7 -181 49 -664 71 -830 17 -131 71 -363 110 -478 14 -42 53 -135
85 -205 70 -152 135 -334 154 -433 20 -105 29 -383 16 -479 -6 -44 -27 -145
-46 -225 -19 -80 -35 -164 -35 -188 0 -54 27 -135 79 -235 37 -71 41 -85 41
-152 0 -90 36 -211 83 -281 66 -100 162 -121 382 -84 72 12 172 24 223 27 79
5 96 9 116 30 25 25 36 62 36 122 0 40 -28 90 -115 205 -82 108 -124 186 -151
276 -43 143 -124 380 -161 467 -33 78 -34 86 -30 180 2 62 12 123 26 168 57
184 124 585 146 885 24 319 14 415 -104 1020 -75 385 -98 490 -110 504 -6 7
-8 22 -5 33 3 12 -3 99 -15 195 -34 283 -43 390 -36 443 17 133 50 294 90 435
48 169 66 266 90 494 20 198 19 366 -5 696 -40 548 -107 870 -300 1432 l-81
237 11 83 c20 160 9 375 -36 683 -71 490 -53 733 69 956 77 140 66 145 124
-59 60 -211 107 -314 179 -391 42 -47 52 -64 58 -106 40 -279 135 -533 255
-681 28 -34 117 -115 198 -180 174 -139 334 -296 456 -449 108 -134 147 -203
194 -337 20 -56 44 -114 53 -128 28 -41 76 -141 93 -195 8 -27 25 -108 37
-180 26 -156 71 -311 111 -383 16 -28 40 -82 54 -118 50 -133 123 -244 160
-244 51 0 69 54 40 123 -25 60 -55 179 -44 175 6 -2 23 -35 38 -73 49 -126
105 -229 153 -278 51 -54 65 -55 123 -12 l30 22 23 -29 c28 -34 69 -37 100 -8
29 27 28 67 -3 155 -31 87 -31 95 0 28 30 -66 73 -93 111 -68 31 20 32 71 3
157 -31 93 -97 229 -123 258 -66 71 -88 129 -66 169 9 18 12 18 67 -1 35 -12
90 -20 138 -21 78 -2 79 -2 89 26 12 33 2 54 -37 77 -14 8 -58 45 -99 81 -78
70 -147 116 -293 194 -157 83 -144 70 -301 333 -24 41 -44 79 -44 86 0 7 -4
16 -8 22 -9 10 -62 145 -136 349 -26 72 -76 200 -111 285 -35 85 -88 229 -118
320 -100 304 -187 467 -342 644 -43 48 -102 107 -131 130 -52 39 -54 43 -54
88 0 120 -51 411 -91 517 -29 80 -105 220 -151 281 l-39 52 22 131 c30 182 24
389 -16 522 -63 215 -149 327 -306 404 -178 86 -325 118 -494 108 -86 -5 -93
-4 -175 30 -154 64 -187 80 -266 131 -144 92 -169 131 -225 337 -37 137 -37
144 -21 280 20 155 19 154 87 220 74 73 85 106 85 254 0 99 -7 122 -41 133 -9
3 -9 13 -1 38 6 19 18 87 27 150 15 103 15 124 2 200 -8 47 -29 121 -47 165
-29 70 -44 91 -124 171 -87 86 -95 92 -191 127 -55 21 -163 51 -240 67 -77 15
-148 32 -158 35 -14 6 -20 2 -24 -15z m202 -65 c44 -8 127 -31 185 -52 99 -36
110 -43 189 -118 68 -65 90 -94 117 -152 65 -143 78 -296 39 -481 -8 -37 -15
-71 -15 -76 0 -5 -3 -7 -6 -3 -11 11 -24 89 -29 182 -14 219 -52 354 -120 423
-42 42 -70 51 -103 33 -9 -5 -73 -21 -142 -35 -159 -34 -344 -44 -413 -23 -43
14 -52 14 -85 0 -52 -21 -80 -49 -112 -113 -44 -87 -52 -151 -35 -282 15 -112
13 -160 -7 -140 -21 21 -58 223 -57 312 0 107 22 200 63 273 20 37 46 71 56
77 22 12 27 46 8 53 -13 5 -7 8 38 22 9 3 14 11 10 20 -4 11 3 15 28 15 33 0
62 20 49 33 -3 4 22 4 56 1 56 -6 63 -5 67 13 5 17 11 19 51 13 32 -5 48 -3
56 6 15 16 15 16 112 -1z m340 -297 c45 -43 78 -138 98 -283 9 -60 14 -113 11
-117 -4 -7 33 -228 40 -235 2 -2 9 3 16 12 16 20 46 19 54 -1 9 -24 7 -174 -4
-219 -6 -28 -23 -53 -59 -87 -69 -64 -78 -82 -91 -168 -13 -86 -38 -131 -103
-184 -80 -66 -225 -116 -337 -116 -64 0 -172 25 -236 54 -29 14 -76 45 -103
71 -45 42 -50 51 -60 113 -25 151 -43 204 -81 246 -20 23 -43 52 -50 66 -33
63 -53 211 -30 225 5 3 23 -1 40 -10 30 -15 30 -15 42 12 12 29 15 143 8 315
-4 94 -4 98 30 164 55 106 83 119 207 94 47 -9 89 -9 175 -1 105 9 291 50 327
71 32 19 71 11 106 -22z m-658 -1371 c108 -56 314 -73 456 -36 88 22 130 44
190 98 21 18 39 32 42 29 2 -2 -5 -49 -16 -103 -30 -148 -111 -383 -184 -530
-72 -148 -104 -240 -88 -256 7 -7 38 2 101 30 162 71 259 95 485 116 38 4 67
3 67 -3 0 -5 -24 -25 -52 -44 -37 -25 -68 -37 -104 -41 -105 -12 -290 -122
-421 -250 -111 -109 -113 -116 -149 -523 -16 -178 -15 -268 1 -321 6 -20 3
-21 -50 -25 -31 -1 -58 -1 -60 1 -3 2 2 15 9 30 24 47 26 108 11 248 -8 76
-19 197 -24 268 -12 176 -29 221 -111 309 -70 74 -234 190 -325 231 -31 13
-80 27 -108 31 -36 4 -69 17 -104 41 -88 59 -86 59 152 32 98 -12 225 -50 348
-105 42 -19 82 -32 87 -29 6 3 10 17 10 30 0 30 -43 151 -80 225 -93 185 -200
518 -200 621 0 19 5 17 44 -19 24 -22 57 -47 73 -55z m-127 -77 c0 -41 97
-316 166 -471 41 -91 74 -173 74 -182 0 -13 -11 -11 -62 12 -160 72 -335 108
-551 112 -65 2 -120 6 -122 9 -2 4 26 21 64 39 117 55 226 128 284 191 58 62
77 107 118 272 11 46 29 57 29 18z m864 -74 c33 -122 54 -172 96 -219 38 -43
163 -128 270 -183 73 -37 74 -38 45 -45 -16 -4 -67 -7 -112 -8 -181 -2 -381
-46 -545 -119 -27 -11 -48 -17 -48 -13 0 15 27 85 52 136 14 28 40 78 57 113
35 69 103 261 126 356 19 75 24 90 29 85 2 -2 16 -48 30 -103z m-1373 -496
c48 0 64 -6 117 -40 34 -22 62 -43 62 -47 -1 -5 -41 -27 -90 -51 -71 -33 -105
-58 -162 -115 -72 -72 -225 -283 -368 -507 -98 -154 -103 -160 -159 -160 -41
0 -62 -11 -205 -105 -88 -58 -163 -102 -167 -98 -8 10 -35 157 -49 277 -29
238 61 554 189 667 50 44 188 115 290 149 98 33 163 39 331 35 85 -3 180 -5
211 -5z m2384 -34 c185 -62 286 -126 346 -220 102 -157 157 -416 130 -611 -23
-167 -43 -255 -57 -255 -7 0 -75 42 -150 93 -196 133 -176 123 -224 110 l-42
-11 -86 132 c-148 227 -325 476 -378 531 -59 62 -158 128 -226 153 -26 9 -48
20 -48 24 0 5 26 25 58 46 54 35 63 37 162 43 58 4 173 6 255 4 143 -2 155 -4
260 -39z m-1994 -131 c74 -30 217 -128 306 -209 62 -57 74 -75 92 -129 11 -34
23 -98 26 -142 3 -44 13 -153 22 -243 19 -197 15 -263 -17 -297 -47 -50 -198
-86 -485 -116 -132 -14 -196 -8 -295 26 -94 32 -284 123 -347 166 -69 47 -203
159 -203 169 0 11 219 343 315 480 110 156 179 223 287 280 102 55 190 59 299
15z m1342 -14 c134 -67 226 -176 496 -585 61 -93 111 -173 111 -177 0 -4 -15
-18 -32 -31 -18 -12 -65 -51 -105 -85 -117 -102 -377 -224 -529 -248 -48 -7
-309 19 -444 45 -99 19 -196 56 -219 84 -28 33 -30 98 -10 291 10 105 19 215
19 246 0 31 9 88 21 125 18 61 28 76 87 133 69 65 195 157 266 193 79 40 110
48 191 45 68 -2 90 -8 148 -36z m-2312 -790 c21 -5 68 -35 112 -71 90 -73 85
-54 62 -279 -9 -79 -14 -165 -13 -190 1 -30 -15 -105 -46 -216 -78 -276 -119
-365 -208 -451 -35 -34 -80 -57 -248 -127 -113 -47 -222 -92 -243 -101 -37
-16 -37 -16 -46 7 -11 29 -41 271 -48 392 -6 99 21 317 57 458 37 149 166 383
203 371 10 -3 42 8 75 26 70 40 233 153 251 174 15 18 38 20 92 7z m3098 -19
c58 -46 212 -148 258 -171 23 -11 49 -18 57 -15 34 13 157 -207 200 -358 41
-143 69 -356 63 -478 -6 -134 -35 -367 -48 -391 -9 -17 -15 -16 -92 18 -45 19
-152 64 -238 100 -86 35 -172 78 -192 94 -85 70 -145 195 -217 454 -34 120
-44 175 -50 275 -5 69 -14 175 -20 237 -7 61 -10 118 -7 126 7 18 154 123 182
130 44 11 69 6 104 -21z m-317 -223 c4 -35 10 -127 13 -204 l7 -140 -31 -55
c-74 -133 -111 -211 -126 -266 -9 -32 -21 -75 -26 -94 -6 -19 -12 -125 -16
-235 -5 -209 -7 -186 53 -635 19 -143 28 -394 20 -512 l-8 -96 -140 -114 c-78
-62 -171 -138 -207 -169 -69 -58 -310 -348 -421 -504 -81 -116 -120 -161 -120
-140 0 9 27 82 61 163 33 80 76 200 95 266 47 161 118 526 139 706 9 80 34
224 56 320 21 96 41 184 44 195 17 76 25 243 25 530 1 356 -12 623 -34 750 -8
44 -12 83 -9 88 2 4 32 7 66 7 87 0 202 39 381 130 83 42 156 76 161 75 6 -1
13 -30 17 -66z m-2394 -12 c162 -80 291 -127 346 -127 19 0 37 -3 39 -7 3 -5
-1 -44 -9 -87 -25 -143 -35 -364 -34 -747 1 -415 5 -465 65 -720 19 -83 46
-236 60 -342 39 -306 123 -692 182 -839 9 -22 13 -42 9 -45 -7 -7 -6 -8 -90
103 -120 159 -190 234 -313 335 -69 57 -136 113 -148 124 -13 11 -53 44 -89
74 -37 30 -70 65 -74 80 -4 14 -7 118 -6 231 0 203 17 408 51 610 11 66 16
170 17 340 1 210 -2 255 -18 315 -18 69 -73 191 -141 313 -31 56 -35 72 -35
135 0 94 22 327 31 327 4 0 74 -33 157 -73z m1319 -58 c46 -15 140 -35 210
-44 71 -9 144 -20 163 -24 l35 -7 18 -109 c10 -65 18 -177 20 -275 l2 -165
-85 -34 c-105 -43 -159 -44 -317 -7 -62 15 -139 29 -171 32 l-59 7 -6 126 c-4
69 -7 214 -7 322 l0 195 43 11 c23 5 49 8 57 5 8 -3 52 -18 97 -33z m-246
-179 c0 -107 -4 -252 -7 -321 l-7 -126 -76 -6 c-42 -3 -115 -15 -162 -26 -202
-47 -238 -47 -354 1 -83 34 -85 37 -85 153 0 113 15 278 33 370 11 56 14 60
42 63 187 16 409 54 475 81 14 6 51 9 84 8 l59 -2 -2 -195z m-436 -557 c39 3
118 17 177 31 124 28 228 40 245 29 16 -11 26 -292 16 -438 l-8 -110 -37 -18
c-45 -22 -290 -39 -428 -31 -79 5 -189 33 -217 56 -15 12 -17 140 -6 389 l6
156 91 -35 c82 -31 98 -34 161 -29z m700 30 c176 -39 225 -40 320 -5 44 16 87
32 96 36 14 6 17 -21 23 -254 4 -170 3 -267 -4 -279 -5 -11 -38 -29 -77 -42
-60 -20 -87 -23 -232 -22 -193 1 -303 10 -326 27 -14 10 -17 43 -18 281 -1
149 2 276 6 282 10 16 64 9 212 -24z m-2435 -75 c1 -57 42 -345 52 -366 7 -15
23 -28 34 -30 12 -2 72 19 135 46 205 89 341 143 347 138 3 -3 -5 -57 -17
-120 -40 -215 -116 -405 -210 -526 -50 -66 -182 -185 -256 -232 -68 -43 -264
-238 -375 -372 -116 -140 -177 -233 -218 -334 -15 -37 -36 -82 -45 -100 l-18
-33 -57 49 c-58 50 -209 156 -233 164 -11 4 -4 26 28 94 23 49 56 127 73 173
17 47 71 182 119 300 49 119 110 281 136 361 115 350 193 488 398 701 93 98
107 109 107 87z m4559 -124 c173 -182 267 -355 375 -693 21 -63 79 -220 130
-350 51 -130 101 -260 111 -290 10 -30 35 -97 56 -149 22 -53 39 -99 39 -103
0 -4 -17 -18 -37 -30 -49 -29 -193 -140 -217 -168 -30 -33 -40 -26 -60 39 -33
112 -104 237 -209 369 -116 145 -313 344 -396 400 -86 59 -210 170 -264 236
-58 72 -125 206 -166 332 -30 91 -77 310 -69 319 4 4 208 -78 396 -160 46 -20
88 -33 93 -30 20 12 40 67 48 136 5 40 15 117 22 170 l12 98 27 -20 c15 -11
64 -58 109 -106z m-2986 -395 c102 -33 495 -21 568 17 l30 15 -3 -245 c-4
-300 6 -281 -141 -281 -89 1 -121 6 -249 43 -81 23 -165 50 -187 61 -37 19
-39 24 -60 108 -26 105 -51 247 -51 287 0 23 3 27 18 21 9 -4 43 -16 75 -26z
m1297 7 c0 -37 -38 -244 -57 -315 -22 -79 -35 -87 -236 -143 -147 -41 -307
-60 -336 -39 -12 7 -15 57 -19 255 l-5 245 34 -10 c19 -5 131 -13 249 -16 212
-5 216 -5 285 20 88 32 85 32 85 3z m-115 -633 c-29 -228 -92 -560 -135 -710
-17 -59 -67 -197 -111 -306 -43 -110 -79 -207 -79 -217 0 -22 -99 -67 -156
-71 l-42 -3 -6 434 c-4 239 -7 440 -7 445 -1 6 2 123 7 261 l7 252 86 0 c69
-1 115 7 237 40 84 23 167 47 185 55 19 8 35 14 36 13 1 -1 -9 -88 -22 -193z
m-1010 137 c116 -34 160 -42 256 -47 74 -3 123 -1 136 5 20 11 20 7 28 -246 4
-141 6 -322 4 -402 -2 -80 -4 -281 -4 -447 0 -347 11 -319 -105 -277 -108 41
-150 92 -229 284 -34 84 -78 206 -96 271 -46 157 -111 492 -135 684 -10 84
-22 170 -26 191 -6 33 -5 36 12 31 10 -3 82 -25 159 -47z m-624 -482 c44 -41
46 -46 50 -108 21 -337 -24 -593 -132 -753 -95 -141 -265 -317 -319 -329 -19
-4 -16 28 16 202 49 261 136 575 246 885 27 77 51 146 53 153 6 17 27 5 86
-50z m2362 -253 c117 -354 175 -582 212 -825 7 -47 9 -89 5 -94 -13 -13 -254
217 -306 292 -104 148 -128 226 -145 465 -11 149 -2 348 17 378 13 22 108 89
114 82 4 -4 51 -138 103 -298z m-2163 89 c41 -34 98 -86 126 -116 76 -78 264
-314 389 -488 61 -84 126 -171 146 -194 19 -22 46 -66 59 -96 50 -116 36 -467
-35 -841 -14 -74 -32 -183 -40 -244 -49 -349 -98 -576 -177 -813 -35 -106 -43
-121 -45 -92 -7 83 -24 232 -39 325 -55 353 -90 551 -124 700 -22 94 -60 267
-85 385 -24 118 -64 287 -89 375 -24 88 -56 212 -70 275 -15 63 -51 187 -82
275 -30 88 -55 169 -54 180 0 11 2 117 5 235 2 118 4 217 4 219 1 4 17 -8 111
-85z m1896 49 c-14 -58 -19 -310 -7 -375 12 -71 8 -90 -67 -308 -42 -120 -243
-940 -298 -1215 -100 -493 -144 -747 -155 -888 -11 -136 -14 -155 -23 -146 -2
2 -27 78 -55 169 -75 249 -118 452 -130 615 -7 91 -26 217 -55 360 -62 306
-80 456 -74 635 5 130 9 153 36 225 24 64 42 93 92 145 34 36 100 118 147 184
103 143 187 248 261 330 80 88 305 295 321 296 10 0 12 -8 7 -27z m-4046 -170
c71 -44 180 -128 199 -154 l22 -29 -24 -33 c-70 -93 -116 -239 -141 -452 -4
-35 -2 -27 -53 -180 -72 -214 -185 -455 -214 -455 -13 0 -13 2 26 122 19 59
36 129 38 156 2 42 0 47 -20 50 -21 3 -70 -22 -85 -43 -4 -5 -15 -32 -24 -60
-21 -66 -138 -276 -169 -305 -49 -46 -39 5 38 197 41 103 73 193 70 200 -3 7
-14 13 -24 13 -25 0 -66 -66 -163 -260 -81 -162 -97 -187 -115 -176 -32 20 19
175 118 360 51 94 59 120 41 131 -20 12 -47 -6 -70 -48 -13 -23 -44 -71 -68
-107 -25 -36 -60 -98 -78 -137 -25 -56 -38 -73 -53 -73 -25 0 -25 3 -6 77 22
84 85 211 148 295 69 93 74 103 76 163 1 28 4 58 7 67 6 19 -11 58 -25 58 -5
0 -40 -18 -78 -40 -57 -33 -81 -41 -139 -46 -68 -5 -69 -5 -44 13 14 10 54 47
90 82 92 91 169 145 293 208 145 72 189 114 243 229 23 51 59 117 80 148 40
60 48 63 104 29z m6143 -24 c11 -19 44 -81 74 -139 61 -118 86 -147 158 -192
27 -17 68 -43 90 -58 22 -15 57 -33 78 -39 20 -7 37 -17 37 -22 0 -5 6 -9 14
-9 18 0 101 -64 186 -144 36 -34 74 -67 85 -74 17 -11 10 -12 -45 -7 -47 4
-87 16 -147 44 -45 22 -84 37 -87 33 -3 -3 -6 -44 -6 -91 0 -93 8 -114 75
-196 49 -61 90 -140 125 -242 29 -85 32 -113 11 -113 -5 0 -20 27 -34 60 -15
33 -52 93 -84 134 -32 40 -70 95 -86 121 -21 36 -32 46 -50 43 -37 -5 -31 -38
23 -128 28 -46 57 -102 65 -125 7 -22 23 -60 34 -85 30 -67 41 -126 27 -144
-6 -9 -16 -12 -23 -8 -7 4 -49 82 -94 172 -103 208 -132 250 -166 250 -29 0
-29 -13 6 -95 75 -177 117 -301 108 -313 -8 -10 -15 -8 -32 8 -30 28 -132 216
-164 302 -21 57 -32 73 -63 90 -78 45 -88 -10 -33 -181 37 -113 40 -131 27
-131 -12 0 -89 138 -108 195 -10 28 -32 79 -50 115 -49 99 -92 242 -115 380
-33 207 -76 333 -136 401 -13 15 -7 23 54 78 73 65 202 153 218 148 5 -2 18
-19 28 -38z m-4074 -484 c53 -186 126 -450 167 -609 48 -187 134 -604 134
-653 0 -22 -18 -146 -41 -275 -64 -371 -99 -648 -99 -800 0 -16 -3 -28 -7 -28
-17 1 -97 126 -162 252 -70 134 -230 507 -269 628 -35 105 -50 183 -78 405
-34 267 -37 489 -10 654 l19 115 59 63 c96 103 167 224 213 362 12 37 20 49
25 40 5 -8 26 -77 49 -154z m2027 70 c34 -86 81 -158 175 -269 l86 -102 17
-129 c30 -224 30 -307 2 -575 -14 -135 -37 -290 -50 -345 -48 -197 -194 -563
-314 -787 -60 -114 -132 -219 -143 -212 -8 4 -14 53 -34 259 -7 83 -32 258
-54 390 -60 362 -74 472 -66 523 4 25 29 134 56 241 27 108 65 268 85 356 43
199 71 305 136 515 53 171 66 206 75 196 3 -3 16 -31 29 -61z m444 -515 c14 0
18 -27 30 -180 6 -80 13 -161 15 -180 3 -19 8 -139 12 -266 9 -347 -4 -420
-139 -772 -33 -87 -77 -204 -99 -262 -53 -138 -119 -264 -142 -268 -30 -6 -82
59 -101 127 -31 109 -31 151 -3 207 13 27 43 101 67 164 23 63 66 176 95 250
62 156 88 251 110 405 42 302 53 534 31 712 -9 73 -16 139 -16 147 0 10 23 -2
66 -34 36 -28 69 -50 74 -50z m-2860 82 c0 -4 -7 -59 -16 -122 -19 -135 -15
-332 10 -570 33 -313 64 -426 211 -760 117 -269 111 -247 97 -337 -6 -43 -16
-95 -22 -116 -12 -39 -71 -107 -94 -107 -19 0 -74 102 -120 220 -21 52 -55
140 -76 195 -22 55 -72 195 -112 310 l-72 210 -1 240 c0 218 16 559 33 692 7
51 9 53 77 102 71 50 85 57 85 43z m734 -1039 c22 -108 70 -411 91 -576 26
-206 35 -545 15 -577 -8 -12 -18 -10 -67 14 -32 15 -89 51 -126 79 l-69 50 7
111 c13 218 26 335 70 601 53 321 54 325 65 325 5 0 11 -12 14 -27z m1294 -63
c6 -36 27 -161 47 -279 37 -220 62 -445 66 -585 2 -77 1 -80 -27 -103 -93 -77
-227 -152 -239 -134 -2 5 -6 109 -7 232 -2 242 11 359 83 724 49 251 57 266
77 145z m-2133 -332 c26 -73 58 -169 71 -213 26 -84 147 -341 184 -387 l21
-28 40 21 c50 25 94 93 109 168 23 115 21 114 70 31 122 -211 252 -336 403
-386 l50 -17 -6 -88 c-4 -56 -18 -123 -37 -184 -31 -94 -115 -303 -129 -318
-4 -4 -29 2 -55 14 -46 20 -48 22 -41 52 16 78 25 158 24 232 -2 96 -9 137
-28 143 -11 4 -13 -11 -9 -79 5 -86 -3 -194 -22 -286 -11 -52 -12 -52 -43 -46
-72 13 -107 43 -163 143 -59 104 -93 140 -129 140 -13 0 -30 3 -39 6 -14 5
-14 9 3 33 10 14 28 46 40 70 21 40 21 45 7 74 l-15 31 -10 -24 c-6 -14 -23
-55 -38 -93 -27 -64 -122 -186 -180 -231 l-23 -17 0 59 c0 32 7 110 16 173 8
63 18 202 22 309 l7 195 -36 145 c-20 80 -58 216 -83 303 -47 163 -52 187 -37
187 4 0 30 -60 56 -132z m2975 40 c0 -26 -40 -179 -74 -284 -19 -60 -42 -147
-50 -193 -22 -116 -20 -342 3 -511 28 -198 34 -267 24 -273 -5 -3 -41 25 -80
63 -67 65 -103 121 -152 243 -6 16 -16 25 -22 22 -13 -9 -3 -55 27 -124 14
-30 23 -55 22 -55 -2 -1 -19 -9 -40 -18 -38 -17 -76 -66 -121 -153 -43 -83
-64 -101 -141 -119 -38 -9 -70 -15 -72 -13 -7 7 -32 149 -39 222 -4 40 -2 95
4 129 12 66 8 81 -20 66 -17 -9 -19 -22 -19 -98 0 -84 12 -213 26 -279 6 -31
4 -33 -46 -57 -52 -25 -70 -26 -70 -2 0 6 -27 86 -59 176 -58 161 -73 221 -86
345 l-6 60 47 19 c67 28 180 105 244 169 31 30 84 95 119 146 34 50 66 91 70
91 4 0 23 -35 41 -77 51 -116 105 -166 159 -148 11 3 43 58 79 133 51 106 87
197 203 510 9 23 29 30 29 10z m-180 -1252 c41 -39 82 -82 91 -96 28 -44 37
-302 28 -765 -4 -231 -13 -474 -19 -540 -13 -140 -70 -455 -140 -775 -27 -124
-54 -255 -61 -292 -13 -73 -23 -97 -36 -84 -4 4 -11 141 -15 304 -7 328 -25
591 -54 802 -12 87 -46 217 -110 425 -77 246 -123 364 -210 530 -51 97 -104
220 -104 241 0 2 22 15 50 29 32 16 66 25 98 25 68 0 136 26 170 64 15 18 47
66 69 107 47 86 67 106 108 111 36 4 40 2 135 -86z m-2446 32 c18 -29 45 -75
59 -103 14 -27 36 -59 49 -71 24 -22 126 -58 193 -69 87 -15 115 -25 115 -44
0 -26 -21 -75 -104 -241 -40 -80 -85 -176 -100 -215 -16 -38 -44 -105 -63
-148 -42 -94 -146 -502 -162 -632 -13 -109 -26 -342 -41 -690 -12 -288 -17
-345 -30 -345 -5 0 -12 17 -15 37 -22 132 -52 264 -94 410 -109 379 -130 571
-136 1238 -2 242 0 507 5 588 l8 149 88 93 89 92 53 2 52 1 34 -52z m416 -753
c-11 -110 -25 -247 -31 -305 -17 -165 -88 -476 -152 -665 -19 -55 -72 -192
-117 -305 -46 -113 -89 -231 -97 -264 -31 -132 -35 -453 -7 -591 8 -38 21
-110 28 -160 8 -49 19 -110 25 -135 20 -84 14 -112 -44 -225 -43 -84 -55 -118
-55 -154 -1 -177 -66 -348 -147 -386 -77 -37 -203 -28 -501 36 -90 19 -105 25
-113 46 -22 58 -1 106 101 238 88 113 131 200 169 343 29 103 79 241 129 352
19 40 22 43 28 23 7 -26 17 -29 33 -9 27 32 -28 426 -130 937 -61 308 -73 418
-66 634 6 176 23 297 75 535 17 74 40 195 52 268 13 72 26 132 30 132 5 0 10
-228 13 -507 6 -654 20 -774 137 -1229 22 -85 49 -208 60 -272 11 -65 25 -140
31 -168 l12 -52 41 2 41 2 7 75 c3 41 6 128 7 194 0 118 21 455 42 685 36 395
109 673 253 960 47 93 97 198 112 232 52 123 49 122 52 23 2 -49 -6 -180 -18
-290z m1473 203 c102 -220 128 -287 205 -513 77 -229 102 -338 127 -545 22
-192 31 -352 34 -610 1 -124 4 -234 6 -245 2 -11 4 -64 4 -118 l1 -98 38 7
c55 10 47 -7 77 174 20 126 48 253 95 435 52 200 66 279 89 507 17 165 43 681
39 758 -1 14 -1 87 0 163 3 206 17 185 67 -103 15 -80 37 -206 51 -280 21
-111 26 -176 31 -368 5 -256 -4 -379 -42 -562 -50 -239 -118 -588 -129 -665
-16 -105 -15 -307 1 -312 6 -2 14 6 18 17 4 12 10 18 14 14 9 -10 117 -327
155 -454 28 -94 78 -181 186 -325 75 -99 94 -150 71 -192 -14 -27 -111 -49
-306 -70 -216 -24 -272 -23 -316 4 -67 42 -129 193 -129 313 0 80 -19 149 -58
210 -34 55 -62 132 -62 175 0 18 15 92 34 166 50 199 59 287 53 510 -6 232
-15 269 -157 614 -73 177 -129 358 -180 576 -50 220 -62 317 -90 754 -12 175
-12 205 -2 205 5 0 38 -64 75 -142z"/>
</g>
</svg>
